<svg xmlns="http://www.w3.org/2000/svg" width="1024" height="683" viewBox="0 0 1024 683" role="img" aria-labelledby="title desc">
  <title id="title">Machine learning lab thumbnail</title>
  <desc id="desc">A Machine Learning project visual with nodes, charts, and model cards.</desc>
  <defs>
    <linearGradient id="bg" x1="0" y1="0" x2="1" y2="1">
      <stop offset="0" stop-color="#111827"/>
      <stop offset="0.48" stop-color="#4338ca"/>
      <stop offset="1" stop-color="#ec4899"/>
    </linearGradient>
    <filter id="shadow" x="-20%" y="-20%" width="140%" height="140%">
      <feDropShadow dx="0" dy="18" stdDeviation="18" flood-color="#020617" flood-opacity="0.35"/>
    </filter>
  </defs>
  <rect width="1024" height="683" fill="url(#bg)"/>
  <rect x="80" y="92" width="864" height="499" rx="34" fill="#ffffff" opacity="0.1"/>
  <g filter="url(#shadow)">
    <rect x="135" y="145" width="754" height="392" rx="26" fill="#f8fafc"/>
    <rect x="184" y="201" width="252" height="288" rx="18" fill="#eef2ff"/>
    <rect x="487" y="201" width="353" height="128" rx="18" fill="#fdf2f8"/>
    <rect x="487" y="361" width="353" height="128" rx="18" fill="#ecfeff"/>
    <path d="M241 421c42-93 85-138 129-134 34 3 55 37 83 83" fill="none" stroke="#4338ca" stroke-width="12" stroke-linecap="round"/>
    <circle cx="245" cy="421" r="13" fill="#4338ca"/>
    <circle cx="368" cy="287" r="13" fill="#4338ca"/>
    <circle cx="453" cy="370" r="13" fill="#4338ca"/>
    <line x1="553" y1="421" x2="773" y2="421" stroke="#06b6d4" stroke-width="12" stroke-linecap="round"/>
    <line x1="553" y1="458" x2="708" y2="458" stroke="#67e8f9" stroke-width="12" stroke-linecap="round"/>
    <circle cx="579" cy="263" r="24" fill="#ec4899"/>
    <circle cx="671" cy="238" r="24" fill="#8b5cf6"/>
    <circle cx="759" cy="276" r="24" fill="#06b6d4"/>
    <path d="M579 263 671 238 759 276M671 238v80M579 263l92 55 88-42" fill="none" stroke="#111827" stroke-width="5" opacity="0.55"/>
  </g>
  <text x="72" y="80" fill="#ffffff" font-family="Arial, sans-serif" font-size="34" font-weight="700">Machine Learning Lab</text>
  <text x="72" y="124" fill="#fce7f3" font-family="Arial, sans-serif" font-size="22">AI concepts, model basics, and experiments</text>
</svg>
