<svg xmlns="http://www.w3.org/2000/svg" width="1024" height="683" viewBox="0 0 1024 683" role="img" aria-labelledby="title desc">
  <title id="title">Problem solving project thumbnail</title>
  <desc id="desc">A coding challenge and problem solving visual with logic steps.</desc>
  <defs>
    <linearGradient id="bg" x1="0" y1="0" x2="1" y2="1">
      <stop offset="0" stop-color="#082f49"/>
      <stop offset="0.52" stop-color="#0f766e"/>
      <stop offset="1" stop-color="#fde047"/>
    </linearGradient>
    <filter id="shadow" x="-20%" y="-20%" width="140%" height="140%">
      <feDropShadow dx="0" dy="18" stdDeviation="18" flood-color="#020617" flood-opacity="0.32"/>
    </filter>
  </defs>
  <rect width="1024" height="683" fill="url(#bg)"/>
  <g filter="url(#shadow)">
    <rect x="145" y="126" width="734" height="431" rx="28" fill="#f8fafc"/>
    <rect x="202" y="190" width="260" height="305" rx="22" fill="#ecfeff"/>
    <rect x="525" y="190" width="296" height="305" rx="22" fill="#fffbeb"/>
    <text x="239" y="260" fill="#0f766e" font-family="Arial, sans-serif" font-size="30" font-weight="700">Problem</text>
    <text x="239" y="322" fill="#334155" font-family="Consolas, monospace" font-size="23">input -&gt; logic</text>
    <text x="239" y="370" fill="#334155" font-family="Consolas, monospace" font-size="23">test -&gt; debug</text>
    <text x="239" y="418" fill="#334155" font-family="Consolas, monospace" font-size="23">output -&gt; learn</text>
    <path d="M590 395c4-46 28-71 70-75 45-4 73-32 73-73 0-48-38-82-91-82-49 0-84 27-96 70" fill="none" stroke="#f59e0b" stroke-width="20" stroke-linecap="round"/>
    <circle cx="590" cy="452" r="15" fill="#f59e0b"/>
    <path d="M472 342h52" stroke="#0f766e" stroke-width="12" stroke-linecap="round"/>
  </g>
  <text x="72" y="80" fill="#ffffff" font-family="Arial, sans-serif" font-size="34" font-weight="700">Problem Solving</text>
  <text x="72" y="124" fill="#fef9c3" font-family="Arial, sans-serif" font-size="22">Logic, debugging, and coding challenges</text>
</svg>
