<svg xmlns="http://www.w3.org/2000/svg" width="1024" height="683" viewBox="0 0 1024 683" role="img" aria-labelledby="title desc">
  <title id="title">Personal portfolio website thumbnail</title>
  <desc id="desc">A clean web development project visual with HTML and CSS panels.</desc>
  <defs>
    <linearGradient id="bg" x1="0" y1="0" x2="1" y2="1">
      <stop offset="0" stop-color="#0f172a"/>
      <stop offset="0.55" stop-color="#155e75"/>
      <stop offset="1" stop-color="#f59e0b"/>
    </linearGradient>
    <filter id="shadow" x="-20%" y="-20%" width="140%" height="140%">
      <feDropShadow dx="0" dy="18" stdDeviation="18" flood-color="#020617" flood-opacity="0.32"/>
    </filter>
  </defs>
  <rect width="1024" height="683" rx="0" fill="url(#bg)"/>
  <circle cx="830" cy="120" r="190" fill="#ffffff" opacity="0.08"/>
  <circle cx="145" cy="575" r="155" fill="#ffffff" opacity="0.08"/>
  <g filter="url(#shadow)">
    <rect x="150" y="112" width="724" height="459" rx="26" fill="#f8fafc"/>
    <rect x="150" y="112" width="724" height="70" rx="26" fill="#111827"/>
    <circle cx="194" cy="147" r="10" fill="#ef4444"/>
    <circle cx="226" cy="147" r="10" fill="#f59e0b"/>
    <circle cx="258" cy="147" r="10" fill="#22c55e"/>
    <rect x="203" y="237" width="288" height="34" rx="10" fill="#0f172a"/>
    <rect x="203" y="296" width="228" height="18" rx="9" fill="#64748b"/>
    <rect x="203" y="330" width="265" height="18" rx="9" fill="#94a3b8"/>
    <rect x="203" y="386" width="112" height="38" rx="19" fill="#0ea5e9"/>
    <rect x="548" y="236" width="260" height="220" rx="20" fill="#e0f2fe"/>
    <path d="M604 378 658 309l49 55 30-34 51 48v56H604Z" fill="#0ea5e9" opacity="0.72"/>
    <circle cx="744" cy="291" r="25" fill="#f59e0b"/>
    <rect x="548" y="482" width="92" height="18" rx="9" fill="#94a3b8"/>
    <rect x="660" y="482" width="148" height="18" rx="9" fill="#cbd5e1"/>
  </g>
  <text x="72" y="82" fill="#ffffff" font-family="Arial, sans-serif" font-size="34" font-weight="700">Portfolio Website</text>
  <text x="72" y="126" fill="#dbeafe" font-family="Arial, sans-serif" font-size="22">HTML / CSS / Responsive Layout</text>
</svg>
