<svg xmlns="http://www.w3.org/2000/svg" width="1024" height="683" viewBox="0 0 1024 683" role="img" aria-labelledby="title desc">
  <title id="title">Python practice project thumbnail</title>
  <desc id="desc">A Python terminal and code editor visual for programming practice.</desc>
  <defs>
    <linearGradient id="bg" x1="0" y1="0" x2="1" y2="1">
      <stop offset="0" stop-color="#052e16"/>
      <stop offset="0.55" stop-color="#166534"/>
      <stop offset="1" stop-color="#38bdf8"/>
    </linearGradient>
    <filter id="shadow" x="-20%" y="-20%" width="140%" height="140%">
      <feDropShadow dx="0" dy="18" stdDeviation="18" flood-color="#020617" flood-opacity="0.32"/>
    </filter>
  </defs>
  <rect width="1024" height="683" fill="url(#bg)"/>
  <path d="M835 0 1024 172v511H686c82-120 91-238 149-683Z" fill="#ffffff" opacity="0.08"/>
  <g filter="url(#shadow)">
    <rect x="108" y="126" width="808" height="430" rx="28" fill="#0b1220"/>
    <rect x="108" y="126" width="808" height="62" rx="28" fill="#111827"/>
    <circle cx="151" cy="157" r="9" fill="#ef4444"/>
    <circle cx="180" cy="157" r="9" fill="#f59e0b"/>
    <circle cx="209" cy="157" r="9" fill="#22c55e"/>
    <text x="145" y="247" fill="#93c5fd" font-family="Consolas, monospace" font-size="31" font-weight="700">python practice.py</text>
    <text x="145" y="305" fill="#a7f3d0" font-family="Consolas, monospace" font-size="26">def solve_problem(data):</text>
    <text x="180" y="350" fill="#e5e7eb" font-family="Consolas, monospace" font-size="26">clean = prepare(data)</text>
    <text x="180" y="395" fill="#e5e7eb" font-family="Consolas, monospace" font-size="26">return analyze(clean)</text>
    <text x="145" y="475" fill="#facc15" font-family="Consolas, monospace" font-size="25">&gt; logic + debugging + projects</text>
    <circle cx="747" cy="336" r="82" fill="#facc15"/>
    <circle cx="747" cy="336" r="48" fill="#0b1220"/>
    <path d="M747 238v196M649 336h196" stroke="#38bdf8" stroke-width="22" stroke-linecap="round" opacity="0.95"/>
  </g>
  <text x="72" y="80" fill="#ffffff" font-family="Arial, sans-serif" font-size="34" font-weight="700">Python Practice</text>
  <text x="72" y="124" fill="#dcfce7" font-family="Arial, sans-serif" font-size="22">Programming logic and small scripts</text>
</svg>
