<svg xmlns="http://www.w3.org/2000/svg" width="1024" height="683" viewBox="0 0 1024 683" role="img" aria-labelledby="title desc">
  <title id="title">GitHub workflow thumbnail</title>
  <desc id="desc">A project workflow visual with branches, commits, and repository cards.</desc>
  <defs>
    <linearGradient id="bg" x1="0" y1="0" x2="1" y2="1">
      <stop offset="0" stop-color="#18181b"/>
      <stop offset="0.58" stop-color="#334155"/>
      <stop offset="1" stop-color="#22c55e"/>
    </linearGradient>
    <filter id="shadow" x="-20%" y="-20%" width="140%" height="140%">
      <feDropShadow dx="0" dy="18" stdDeviation="18" flood-color="#020617" flood-opacity="0.32"/>
    </filter>
  </defs>
  <rect width="1024" height="683" fill="url(#bg)"/>
  <g filter="url(#shadow)">
    <rect x="146" y="127" width="732" height="429" rx="26" fill="#f8fafc"/>
    <rect x="191" y="188" width="270" height="305" rx="20" fill="#111827"/>
    <text x="224" y="248" fill="#f8fafc" font-family="Consolas, monospace" font-size="25">git status</text>
    <text x="224" y="304" fill="#86efac" font-family="Consolas, monospace" font-size="22">modified: index.html</text>
    <text x="224" y="348" fill="#93c5fd" font-family="Consolas, monospace" font-size="22">new: project.svg</text>
    <text x="224" y="424" fill="#facc15" font-family="Consolas, monospace" font-size="22">commit ready</text>
    <circle cx="583" cy="238" r="22" fill="#22c55e"/>
    <circle cx="714" cy="338" r="22" fill="#0ea5e9"/>
    <circle cx="583" cy="439" r="22" fill="#f59e0b"/>
    <path d="M583 260v157M604 249c80 30 115 58 110 89M604 428c80-30 115-58 110-90" fill="none" stroke="#334155" stroke-width="10" stroke-linecap="round"/>
    <rect x="525" y="195" width="116" height="36" rx="18" fill="#dcfce7"/>
    <rect x="656" y="295" width="116" height="36" rx="18" fill="#dbeafe"/>
    <rect x="525" y="455" width="116" height="36" rx="18" fill="#fef3c7"/>
  </g>
  <text x="72" y="80" fill="#ffffff" font-family="Arial, sans-serif" font-size="34" font-weight="700">GitHub Workflow</text>
  <text x="72" y="124" fill="#dcfce7" font-family="Arial, sans-serif" font-size="22">Version control and project organization</text>
</svg>
